<svg width="95" height="21" viewBox="0 0 95 21" fill="none"
    xmlns="http://www.w3.org/2000/svg">
    <path d="M47.2533 20.4804C41.8588 20.4804 38.1089 16.3876 38.1089 10.5168C38.1089 7.46403 39.0629 4.88088 40.872 3.06933C42.5167 1.42551 44.7863 0.553284 47.2533 0.553284C52.6478 0.553284 56.3977 4.64605 56.3977 10.5168C56.3977 16.287 52.5492 20.4804 47.2533 20.4804ZM47.2533 3.87446C43.8653 3.87446 41.7601 6.42406 41.7601 10.4833C41.7601 14.5425 43.8653 17.0921 47.2533 17.0921C50.6413 17.0921 52.7465 14.5425 52.7465 10.4833C52.7465 6.42406 50.6413 3.87446 47.2533 3.87446Z" fill="black"/>
    <path d="M36.3327 17.1927H28.4712V20.0778H36.3327V17.1927Z" fill="black"/>
    <path d="M0.742065 20.0778V16.9914H4.16299V3.90801H0.742065V0.821655H10.9719V3.90801H7.551V16.9914H10.9719V20.0778H0.742065Z" fill="black"/>
    <path d="M70.3116 20.1113L63.5027 3.80737V20.1113H60.1147V0.821655H65.871L72.6142 17.1592H72.6471V0.821655H76.0351V20.1113H70.3116Z" fill="black"/>
    <path d="M19.4256 20.1113V6.79308L22.2544 3.90801H13.8337V0.821655H28.6028V3.90801H22.8136V20.1113H19.4256Z" fill="black"/>
    <path d="M80.673 20.1113V0.821655H94.2251V3.90801H84.0611V8.70526H93.0739V11.7245H84.0611V16.9914H94.2251V20.1113H80.673Z" fill="black"/>
</svg>
