<svg width="93" height="39" viewBox="0 0 93 39" fill="none"
    xmlns="http://www.w3.org/2000/svg">
    <g clip-path="url(#clip0_1067_861)">
        <path d="M46.2534 29.4804C40.8588 29.4804 37.109 25.3876 37.109 19.5168C37.109 16.464 38.0629 13.8809 39.872 12.0693C41.5167 10.4255 43.7863 9.55328 46.2534 9.55328C51.6479 9.55328 55.3977 13.6461 55.3977 19.5168C55.3977 25.287 51.5492 29.4804 46.2534 29.4804ZM46.2534 12.8745C42.8653 12.8745 40.7601 15.4241 40.7601 19.4833C40.7601 23.5425 42.8653 26.0921 46.2534 26.0921C49.6414 26.0921 51.7465 23.5425 51.7465 19.4833C51.7465 15.4241 49.6414 12.8745 46.2534 12.8745Z" fill="white"/>
        <path d="M35.3327 26.1927H27.4712V29.0778H35.3327V26.1927Z" fill="white"/>
        <path d="M-0.257935 29.0778V25.9914H3.16299V12.908H-0.257935V9.82166H9.97192V12.908H6.551V25.9914H9.97192V29.0778H-0.257935Z" fill="white"/>
        <path d="M69.3116 29.1113L62.5027 12.8074V29.1113H59.1147V9.82166H64.871L71.6141 26.1592H71.647V9.82166H75.0351V29.1113H69.3116Z" fill="white"/>
        <path d="M18.4255 29.1113V15.7931L21.2544 12.908H12.8336V9.82166H27.6028V12.908H21.8135V29.1113H18.4255Z" fill="white"/>
        <path d="M79.673 29.1113V9.82166H93.2251V12.908H83.0611V17.7053H92.0739V20.7245H83.0611V25.9914H93.2251V29.1113H79.673Z" fill="white"/>
    </g>
    <defs>
        <clipPath id="clip0_1067_861">
            <rect width="93" height="39" fill="white"/>
        </clipPath>
    </defs>
</svg>
