<svg width="117" height="40" viewBox="0 0 117 40" fill="none"
    xmlns="http://www.w3.org/2000/svg">
    <path d="M58.2446 30.2362C52.6591 30.2362 48.7766 26.0385 48.7766 20.0172C48.7766 16.8862 49.7642 14.2368 51.6374 12.3788C53.3403 10.6928 55.6903 9.79822 58.2446 9.79822C63.8301 9.79822 67.7127 13.9959 67.7127 20.0172C67.7127 25.9353 63.7279 30.2362 58.2446 30.2362ZM58.2446 13.2046C54.7367 13.2046 52.557 15.8195 52.557 19.9828C52.557 24.1461 54.7367 26.7611 58.2446 26.7611C61.7526 26.7611 63.9323 24.1461 63.9323 19.9828C63.9323 15.8195 61.7526 13.2046 58.2446 13.2046Z" fill="white"/>
    <path d="M46.9374 26.8643H38.7976V29.8234H46.9374V26.8643Z" fill="white"/>
    <path d="M10.0869 29.8233V26.6579H13.6289V13.2389H10.0869V10.0735H20.6789V13.2389H17.1369V26.6579H20.6789V29.8233H10.0869Z" fill="white"/>
    <path d="M82.1191 29.8577L75.0692 13.1357V29.8577H71.5612V10.0735H77.5213L84.5032 26.8299H84.5372V10.0735H88.0452V29.8577H82.1191Z" fill="white"/>
    <path d="M29.4317 29.8577V16.198L32.3607 13.2389H23.6419V10.0735H38.9338V13.2389H32.9397V29.8577H29.4317Z" fill="white"/>
    <path d="M92.8473 29.8577V10.0735H106.879V13.2389H96.3552V18.1592H105.687V21.2559H96.3552V26.6579H106.879V29.8577H92.8473Z" fill="white"/>
</svg>
