<svg width="72" height="25" viewBox="0 0 72 25" fill="none"
    xmlns="http://www.w3.org/2000/svg">
    <path d="M35.8429 18.8978C32.4056 18.8978 30.0164 16.2742 30.0164 12.5109C30.0164 10.554 30.6242 8.89812 31.7769 7.73687C32.8248 6.68314 34.271 6.12402 35.8429 6.12402C39.2801 6.12402 41.6694 8.74759 41.6694 12.5109C41.6694 16.2097 39.2172 18.8978 35.8429 18.8978ZM35.8429 8.25298C33.6841 8.25298 32.3428 9.88734 32.3428 12.4894C32.3428 15.0915 33.6841 16.7258 35.8429 16.7258C38.0016 16.7258 39.3429 15.0915 39.3429 12.4894C39.3429 9.88734 38.0016 8.25298 35.8429 8.25298Z" fill="white"/>
    <path d="M28.8846 16.7905H23.8755V18.6399H28.8846V16.7905Z" fill="white"/>
    <path d="M6.20728 18.6396V16.6611H8.38698V8.27433H6.20728V6.2959H12.7254V8.27433H10.5457V16.6611H12.7254V18.6396H6.20728Z" fill="white"/>
    <path d="M50.5348 18.6611L46.1963 8.20982V18.6611H44.0376V6.2959H47.7054L52.0019 16.7687H52.0228V6.2959H54.1816V18.6611H50.5348Z" fill="white"/>
    <path d="M18.1118 18.6611V10.1237L19.9142 8.27433H14.5488V6.2959H23.9593V8.27433H20.2705V18.6611H18.1118Z" fill="white"/>
    <path d="M57.1367 18.6611V6.2959H65.7717V8.27433H59.2955V11.3495H65.0381V13.2849H59.2955V16.6611H65.7717V18.6611H57.1367Z" fill="white"/>
</svg>
