<svg width="16" height="16" viewBox="0 0 16 16" fill="none"
    xmlns="http://www.w3.org/2000/svg">
    <path fill-rule="evenodd" clip-rule="evenodd" d="M8.05421 1.67267C8.18323 1.9016 8.16574 2.18495 8.00954 2.39626C7.44006 3.1667 7.16603 4.11595 7.23727 5.07136C7.30852 6.02676 7.72032 6.92487 8.39777 7.60232C9.07522 8.27977 9.97332 8.69157 10.9287 8.76282C11.8841 8.83406 12.8334 8.56003 13.6038 7.99055C13.8151 7.83435 14.0985 7.81686 14.3274 7.94588C14.5563 8.07489 14.6881 8.32635 14.6639 8.58801C14.5474 9.8489 14.0742 11.0505 13.2997 12.0523C12.5251 13.0541 11.4813 13.8145 10.2904 14.2447C9.09943 14.6749 7.81059 14.757 6.57468 14.4814C5.33876 14.2058 4.20689 13.584 3.31151 12.6886C2.41613 11.7932 1.79426 10.6613 1.51868 9.42541C1.2431 8.1895 1.32521 6.90066 1.75539 5.70971C2.18557 4.51875 2.94603 3.47494 3.9478 2.70041C4.94956 1.92589 6.15119 1.45268 7.41208 1.33615C7.67374 1.31197 7.9252 1.44375 8.05421 1.67267ZM6.21102 2.95936C5.69261 3.14693 5.20383 3.41467 4.76335 3.75524C3.96194 4.37486 3.35357 5.20991 3.00942 6.16267C2.66528 7.11543 2.59959 8.1465 2.82006 9.13524C3.04052 10.124 3.53801 11.0295 4.25432 11.7458C4.97063 12.4621 5.87612 12.9596 6.86485 13.18C7.85358 13.4005 8.88465 13.3348 9.83742 12.9907C10.7902 12.6465 11.6252 12.0382 12.2449 11.2367C12.5854 10.7963 12.8532 10.3075 13.0407 9.78907C12.3386 10.0431 11.5856 10.1488 10.8296 10.0925C9.5557 9.99746 8.35823 9.4484 7.45496 8.54513C6.55169 7.64186 6.00263 6.44439 5.90763 5.17051C5.85126 4.41453 5.95702 3.66145 6.21102 2.95936Z" fill="#E4E4E4"/>
</svg>
