<svg width="127" height="14" viewBox="0 0 127 14" fill="none"
    xmlns="http://www.w3.org/2000/svg">
    <path d="M7.294 1.06H8.624L5.25 11H3.612L0.238 1.06H1.582L3.22 5.988C3.73333 7.49067 4.144 8.78333 4.452 9.866C4.72267 8.93267 5.124 7.64467 5.656 6.002L7.294 1.06ZM26.6293 1.06V11H25.4253V1.06H26.6293ZM32.1535 9.936L32.3355 10.888C31.8875 11.0467 31.4162 11.126 30.9215 11.126C30.2962 11.126 29.8435 10.986 29.5635 10.706C29.2835 10.4167 29.1435 9.98267 29.1435 9.404V5.022H27.8555V4.112H29.1435V1.802H30.3475V4.112H32.2095V5.022H30.3475V9.264C30.3475 9.572 30.4082 9.79133 30.5295 9.922C30.6602 10.0433 30.8702 10.104 31.1595 10.104C31.4208 10.104 31.7522 10.048 32.1535 9.936ZM43.5216 1.06V2.138H38.2016V5.344H43.1576V6.422H38.2016V9.922H43.6476V11H36.9136V1.06H43.5216ZM50.8489 11H49.5189L47.6569 8.228L45.7809 11H44.4649L46.9709 7.402L44.6749 4.112H46.0049L47.6709 6.562L49.3089 4.112H50.6249L48.3709 7.346L50.8489 11ZM54.6 4.924C53.9467 4.924 53.4333 5.18067 53.06 5.694C52.6867 6.198 52.5 6.81867 52.5 7.556C52.5 8.284 52.682 8.90467 53.046 9.418C53.4193 9.922 53.942 10.174 54.614 10.174C54.9873 10.174 55.3233 10.0947 55.622 9.936C55.93 9.768 56.28 9.46467 56.672 9.026L57.47 9.698C57.0313 10.2487 56.5927 10.636 56.154 10.86C55.7153 11.084 55.202 11.196 54.614 11.196C53.606 11.196 52.794 10.8647 52.178 10.202C51.5713 9.53933 51.268 8.65733 51.268 7.556C51.268 6.464 51.576 5.58667 52.192 4.924C52.8173 4.252 53.6247 3.916 54.614 3.916C55.1833 3.916 55.678 4.014 56.098 4.21C56.5273 4.406 56.952 4.742 57.372 5.218L56.588 5.96C56.2333 5.57733 55.902 5.31133 55.594 5.162C55.2953 5.00333 54.964 4.924 54.6 4.924ZM64.456 6.282V11H63.252V6.66C63.252 6.1 63.1167 5.67533 62.846 5.386C62.5753 5.08733 62.1833 4.938 61.67 4.938C61.1753 4.938 60.7553 5.11067 60.41 5.456C60.0647 5.792 59.892 6.21667 59.892 6.73V11H58.688V1.06H59.892V4.896C60.368 4.24267 61.068 3.916 61.992 3.916C62.7667 3.916 63.3687 4.13533 63.798 4.574C64.2367 5.01267 64.456 5.582 64.456 6.282ZM71.9029 6.212V11H70.8109V10.146C70.3256 10.8647 69.5462 11.224 68.4729 11.224C67.7169 11.224 67.1149 11.0607 66.6669 10.734C66.2282 10.4073 66.0089 9.92667 66.0089 9.292C66.0089 8.55467 66.2842 8.018 66.8349 7.682C67.4042 7.33667 68.1976 7.07533 69.2149 6.898L70.7549 6.618V6.268C70.7549 5.848 70.6056 5.51667 70.3069 5.274C70.0176 5.03133 69.6302 4.91 69.1449 4.91C68.7249 4.91 68.3469 4.99867 68.0109 5.176C67.6842 5.344 67.3062 5.64267 66.8769 6.072L66.1069 5.386C66.9376 4.406 67.9362 3.916 69.1029 3.916C69.9802 3.916 70.6662 4.126 71.1609 4.546C71.6556 4.95667 71.9029 5.512 71.9029 6.212ZM70.7549 8.424V7.514L69.4949 7.766C68.6362 7.94333 68.0436 8.12533 67.7169 8.312C67.3996 8.49867 67.2222 8.81133 67.1849 9.25C67.1849 9.56733 67.3062 9.81 67.5489 9.978C67.8009 10.146 68.1509 10.23 68.5989 10.23C69.2242 10.23 69.7376 10.0667 70.1389 9.74C70.5496 9.404 70.7549 8.96533 70.7549 8.424ZM79.5361 6.282V11H78.3321V6.66C78.3321 6.1 78.1967 5.67533 77.9261 5.386C77.6554 5.08733 77.2634 4.938 76.7501 4.938C76.2554 4.938 75.8354 5.11067 75.4901 5.456C75.1447 5.792 74.9721 6.21667 74.9721 6.73V11H73.7681V4.112H74.9021V4.994C75.3501 4.27533 76.0734 3.916 77.0721 3.916C77.8561 3.916 78.4627 4.13533 78.8921 4.574C79.3214 5.01267 79.5361 5.582 79.5361 6.282ZM86.311 4.112H87.431V10.846C87.431 11.7327 87.151 12.428 86.591 12.932C86.031 13.4453 85.2703 13.702 84.309 13.702C83.189 13.702 82.1483 13.3613 81.187 12.68L81.789 11.798C82.293 12.1153 82.7317 12.3393 83.105 12.47C83.4783 12.61 83.875 12.68 84.295 12.68C84.9017 12.68 85.3777 12.5167 85.723 12.19C86.0683 11.8727 86.241 11.392 86.241 10.748V9.81C85.7557 10.5473 85.023 10.916 84.043 10.916C83.1657 10.916 82.4423 10.5893 81.873 9.936C81.3037 9.27333 81.019 8.43333 81.019 7.416C81.019 6.39867 81.3037 5.56333 81.873 4.91C82.4423 4.24733 83.1657 3.916 84.043 3.916C85.0697 3.916 85.8257 4.322 86.311 5.134V4.112ZM85.709 9.208C86.0823 8.74133 86.269 8.144 86.269 7.416C86.269 6.688 86.0823 6.09533 85.709 5.638C85.3357 5.17133 84.8457 4.938 84.239 4.938C83.6323 4.938 83.147 5.16667 82.783 5.624C82.4283 6.072 82.251 6.66933 82.251 7.416C82.251 8.16267 82.4283 8.76467 82.783 9.222C83.147 9.67 83.6323 9.894 84.239 9.894C84.8457 9.894 85.3357 9.66533 85.709 9.208ZM94.591 9.04L95.305 9.768C94.8103 10.2907 94.3343 10.6593 93.877 10.874C93.4197 11.0887 92.897 11.196 92.309 11.196C91.273 11.196 90.4423 10.8693 89.817 10.216C89.201 9.55333 88.893 8.68067 88.893 7.598C88.893 6.51533 89.1917 5.63333 89.789 4.952C90.3957 4.26133 91.1937 3.916 92.183 3.916C93.163 3.916 93.9237 4.21 94.465 4.798C95.0157 5.386 95.291 6.198 95.291 7.234C95.291 7.36467 95.2817 7.542 95.263 7.766H90.097C90.1343 8.494 90.3443 9.082 90.727 9.53C91.1097 9.96867 91.6417 10.188 92.323 10.188C92.7523 10.188 93.121 10.104 93.429 9.936C93.737 9.77733 94.1243 9.47867 94.591 9.04ZM90.125 6.87H94.101C94.073 6.254 93.8863 5.76867 93.541 5.414C93.205 5.05933 92.7477 4.882 92.169 4.882C91.609 4.882 91.1517 5.05467 90.797 5.4C90.4423 5.74533 90.2183 6.23533 90.125 6.87ZM107.929 2.25L107.173 3.146C106.24 2.362 105.316 1.97 104.401 1.97C103.347 1.97 102.502 2.348 101.867 3.104C101.233 3.85067 100.915 4.826 100.915 6.03C100.915 7.21533 101.228 8.19067 101.853 8.956C102.488 9.712 103.309 10.09 104.317 10.09C104.859 10.09 105.349 9.98267 105.787 9.768C106.235 9.544 106.744 9.166 107.313 8.634L108.111 9.502C107.458 10.118 106.842 10.5613 106.263 10.832C105.694 11.0933 105.05 11.224 104.331 11.224C102.903 11.224 101.76 10.7387 100.901 9.768C100.043 8.79733 99.6134 7.54667 99.6134 6.016C99.6134 4.48533 100.043 3.23933 100.901 2.278C101.76 1.31667 102.927 0.836 104.401 0.836C105.064 0.836 105.671 0.948 106.221 1.172C106.772 1.38667 107.341 1.746 107.929 2.25ZM110.575 1.06V11H109.371V1.06H110.575ZM116.925 4.112H118.129V11H117.009V10.146C116.589 10.846 115.893 11.196 114.923 11.196C114.111 11.196 113.499 10.9953 113.089 10.594C112.678 10.1927 112.473 9.642 112.473 8.942V4.112H113.677V8.648C113.677 9.656 114.157 10.16 115.119 10.16C115.66 10.16 116.094 9.99667 116.421 9.67C116.757 9.34333 116.925 8.89067 116.925 8.312V4.112ZM125.676 4.938C126.246 5.61 126.53 6.48267 126.53 7.556C126.53 8.62933 126.241 9.502 125.662 10.174C125.093 10.846 124.37 11.182 123.492 11.182C122.41 11.182 121.626 10.776 121.14 9.964V11H120.006V1.06H121.21V5.078C121.714 4.31267 122.475 3.93 123.492 3.93C124.388 3.93 125.116 4.266 125.676 4.938ZM125.298 7.556C125.298 6.772 125.116 6.142 124.752 5.666C124.388 5.19 123.908 4.952 123.31 4.952C122.666 4.952 122.148 5.19 121.756 5.666C121.364 6.13267 121.168 6.76267 121.168 7.556C121.168 8.34933 121.364 8.97933 121.756 9.446C122.148 9.91267 122.666 10.146 123.31 10.146C123.908 10.146 124.388 9.908 124.752 9.432C125.116 8.956 125.298 8.33067 125.298 7.556Z" fill="white"/>
    <g clip-path="url(#clip0_3_360)">
        <g filter="url(#filter0_f_3_360)">
            <path d="M16.9073 3.375L12.8333 8.325H16.4999L16.0925 11.625L20.1666 6.675H16.4999L16.9073 3.375Z" fill="#AAE632"/>
            <path d="M16.9073 3.375L12.8333 8.325H16.4999L16.0925 11.625L20.1666 6.675H16.4999L16.9073 3.375Z" fill="url(#paint0_radial_3_360)" fill-opacity="0.2"/>
        </g>
        <path d="M16.9583 2.9165L12.375 8.4165H16.5L16.0417 12.0832L20.625 6.58317H16.5L16.9583 2.9165Z" fill="#AAE632"/>
        <path d="M16.9583 2.9165L12.375 8.4165H16.5L16.0417 12.0832L20.625 6.58317H16.5L16.9583 2.9165Z" fill="url(#paint1_radial_3_360)" fill-opacity="0.2"/>
        <path d="M20.625 13H22V2H20.625" stroke="white" stroke-width="0.5"/>
        <path d="M12.375 13H11V2H12.375" stroke="white" stroke-width="0.5"/>
    </g>
    <defs>
        <filter id="filter0_f_3_360" x="8.83325" y="-0.625" width="15.3333" height="16.25" filterUnits="userSpaceOnUse" color-interpolation-filters="sRGB">
            <feFlood flood-opacity="0" result="BackgroundImageFix"/>
            <feBlend mode="normal" in="SourceGraphic" in2="BackgroundImageFix" result="shape"/>
            <feGaussianBlur stdDeviation="2" result="effect1_foregroundBlur_3_360"/>
        </filter>
        <radialGradient id="paint0_radial_3_360" cx="0" cy="0" r="1" gradientUnits="userSpaceOnUse" gradientTransform="translate(15.5833 5.95313) rotate(80.8195) scale(5.74547 5.14162)">
            <stop stop-color="#F9FFCB"/>
            <stop offset="1" stop-color="#C2D440"/>
        </radialGradient>
        <radialGradient id="paint1_radial_3_360" cx="0" cy="0" r="1" gradientUnits="userSpaceOnUse" gradientTransform="translate(15.4687 5.78109) rotate(80.7067) scale(6.3859 5.78247)">
            <stop stop-color="#F9FFCB"/>
            <stop offset="1" stop-color="#C2D440"/>
        </radialGradient>
        <clipPath id="clip0_3_360">
            <rect width="11" height="11" fill="white" transform="translate(11 2)"/>
        </clipPath>
    </defs>
</svg>
