<svg width="16" height="16" viewBox="0 0 16 16" fill="none"
    xmlns="http://www.w3.org/2000/svg">
    <g clip-path="url(#clip0_332_348)">
        <path fill-rule="evenodd" clip-rule="evenodd" d="M8 5.33333C6.52724 5.33333 5.33333 6.52724 5.33333 8C5.33333 9.47276 6.52724 10.6667 8 10.6667C9.47276 10.6667 10.6667 9.47276 10.6667 8C10.6667 6.52724 9.47276 5.33333 8 5.33333ZM4 8C4 5.79086 5.79086 4 8 4C10.2091 4 12 5.79086 12 8C12 10.2091 10.2091 12 8 12C5.79086 12 4 10.2091 4 8Z" fill="#E4E4E4"/>
        <path fill-rule="evenodd" clip-rule="evenodd" d="M8.00016 0C8.36835 0 8.66683 0.298477 8.66683 0.666667V2C8.66683 2.36819 8.36835 2.66667 8.00016 2.66667C7.63197 2.66667 7.3335 2.36819 7.3335 2V0.666667C7.3335 0.298477 7.63197 0 8.00016 0Z" fill="#E4E4E4"/>
        <path fill-rule="evenodd" clip-rule="evenodd" d="M8.00016 13.3333C8.36835 13.3333 8.66683 13.6318 8.66683 14V15.3333C8.66683 15.7015 8.36835 16 8.00016 16C7.63197 16 7.3335 15.7015 7.3335 15.3333V14C7.3335 13.6318 7.63197 13.3333 8.00016 13.3333Z" fill="#E4E4E4"/>
        <path fill-rule="evenodd" clip-rule="evenodd" d="M2.34175 2.34193C2.6021 2.08158 3.02421 2.08158 3.28456 2.34193L4.23122 3.2886C4.49157 3.54895 4.49157 3.97106 4.23122 4.23141C3.97087 4.49176 3.54876 4.49176 3.28841 4.23141L2.34175 3.28474C2.0814 3.02439 2.0814 2.60228 2.34175 2.34193Z" fill="#E4E4E4"/>
        <path fill-rule="evenodd" clip-rule="evenodd" d="M11.7685 11.7686C12.0289 11.5082 12.451 11.5082 12.7113 11.7686L13.658 12.7152C13.9183 12.9756 13.9183 13.3977 13.658 13.658C13.3976 13.9184 12.9755 13.9184 12.7152 13.658L11.7685 12.7114C11.5082 12.451 11.5082 12.0289 11.7685 11.7686Z" fill="#E4E4E4"/>
        <path fill-rule="evenodd" clip-rule="evenodd" d="M0 7.99998C0 7.63179 0.298477 7.33331 0.666667 7.33331H2C2.36819 7.33331 2.66667 7.63179 2.66667 7.99998C2.66667 8.36817 2.36819 8.66665 2 8.66665H0.666667C0.298477 8.66665 0 8.36817 0 7.99998Z" fill="#E4E4E4"/>
        <path fill-rule="evenodd" clip-rule="evenodd" d="M13.3335 7.99998C13.3335 7.63179 13.632 7.33331 14.0002 7.33331H15.3335C15.7017 7.33331 16.0002 7.63179 16.0002 7.99998C16.0002 8.36817 15.7017 8.66665 15.3335 8.66665H14.0002C13.632 8.66665 13.3335 8.36817 13.3335 7.99998Z" fill="#E4E4E4"/>
        <path fill-rule="evenodd" clip-rule="evenodd" d="M4.23122 11.7686C4.49157 12.0289 4.49157 12.451 4.23122 12.7114L3.28456 13.658C3.02421 13.9184 2.6021 13.9184 2.34175 13.658C2.0814 13.3977 2.0814 12.9756 2.34175 12.7152L3.28841 11.7686C3.54876 11.5082 3.97087 11.5082 4.23122 11.7686Z" fill="#E4E4E4"/>
        <path fill-rule="evenodd" clip-rule="evenodd" d="M13.658 2.34193C13.9183 2.60228 13.9183 3.02439 13.658 3.28474L12.7113 4.23141C12.451 4.49176 12.0289 4.49176 11.7685 4.23141C11.5082 3.97106 11.5082 3.54895 11.7685 3.2886L12.7152 2.34193C12.9755 2.08158 13.3976 2.08158 13.658 2.34193Z" fill="#E4E4E4"/>
    </g>
    <defs>
        <clipPath id="clip0_332_348">
            <rect width="16" height="16" fill="white"/>
        </clipPath>
    </defs>
</svg>
