<svg width="16" height="16" viewBox="0 0 16 16" fill="none"
    xmlns="http://www.w3.org/2000/svg">
    <g clip-path="url(#clip0_421_2752)">
        <g filter="url(#filter0_f_421_2752)">
            <path d="M8.59267 2L2.66675 9.2H8.00008L7.40749 14L13.3334 6.8H8.00008L8.59267 2Z" fill="#AAE632"/>
            <path d="M8.59267 2L2.66675 9.2H8.00008L7.40749 14L13.3334 6.8H8.00008L8.59267 2Z" fill="url(#paint0_radial_421_2752)" fill-opacity="0.2"/>
        </g>
        <path d="M8.66667 1.33333L2 9.33333H8L7.33333 14.6667L14 6.66667H8L8.66667 1.33333Z" fill="#AAE632"/>
        <path d="M8.66667 1.33333L2 9.33333H8L7.33333 14.6667L14 6.66667H8L8.66667 1.33333Z" fill="url(#paint1_radial_421_2752)" fill-opacity="0.2"/>
    </g>
    <defs>
        <filter id="filter0_f_421_2752" x="-1.33325" y="-2" width="18.6667" height="20" filterUnits="userSpaceOnUse" color-interpolation-filters="sRGB">
            <feFlood flood-opacity="0" result="BackgroundImageFix"/>
            <feBlend mode="normal" in="SourceGraphic" in2="BackgroundImageFix" result="shape"/>
            <feGaussianBlur stdDeviation="2" result="effect1_foregroundBlur_421_2752"/>
        </filter>
        <radialGradient id="paint0_radial_421_2752" cx="0" cy="0" r="1" gradientUnits="userSpaceOnUse" gradientTransform="translate(6.66675 5.75) rotate(80.8195) scale(8.35705 7.47872)">
            <stop stop-color="#F9FFCB"/>
            <stop offset="1" stop-color="#C2D440"/>
        </radialGradient>
        <radialGradient id="paint1_radial_421_2752" cx="0" cy="0" r="1" gradientUnits="userSpaceOnUse" gradientTransform="translate(6.5 5.5) rotate(80.7067) scale(9.28858 8.41086)">
            <stop stop-color="#F9FFCB"/>
            <stop offset="1" stop-color="#C2D440"/>
        </radialGradient>
        <clipPath id="clip0_421_2752">
            <rect width="16" height="16" fill="white"/>
        </clipPath>
    </defs>
</svg>
