<svg width="16" height="16" viewBox="0 0 16 16" fill="none" xmlns="http://www.w3.org/2000/svg">
<path fill-rule="evenodd" clip-rule="evenodd" d="M3.33398 2.66665C2.96579 2.66665 2.66732 2.96512 2.66732 3.33331V12.6666C2.66732 13.0348 2.96579 13.3333 3.33398 13.3333H12.6673C13.0355 13.3333 13.334 13.0348 13.334 12.6666V3.33331C13.334 2.96512 13.0355 2.66665 12.6673 2.66665H3.33398ZM1.33398 3.33331C1.33398 2.22874 2.22941 1.33331 3.33398 1.33331H12.6673C13.7719 1.33331 14.6673 2.22874 14.6673 3.33331V12.6666C14.6673 13.7712 13.7719 14.6666 12.6673 14.6666H3.33398C2.22941 14.6666 1.33398 13.7712 1.33398 12.6666V3.33331Z"/>
<path fill-rule="evenodd" clip-rule="evenodd" d="M5.52925 5.52858C5.7896 5.26823 6.21171 5.26823 6.47206 5.52858L10.4721 9.52858C10.7324 9.78892 10.7324 10.211 10.4721 10.4714C10.2117 10.7317 9.7896 10.7317 9.52925 10.4714L5.52925 6.47138C5.2689 6.21103 5.2689 5.78892 5.52925 5.52858Z"/>
<path fill-rule="evenodd" clip-rule="evenodd" d="M10.4721 5.52858C10.7324 5.78892 10.7324 6.21103 10.4721 6.47138L6.47206 10.4714C6.21171 10.7317 5.7896 10.7317 5.52925 10.4714C5.2689 10.211 5.2689 9.78892 5.52925 9.52858L9.52925 5.52858C9.7896 5.26823 10.2117 5.26823 10.4721 5.52858Z"/>
</svg>
